<svg width="24" height="24" viewBox="0 0 24 24" xmlns="http://www.w3.org/2000/svg" fill="#505557"><g clip-path="url(#act_pro_a)"><path fill-rule="evenodd" clip-rule="evenodd" d="M1.5 12C1.5 6.201 6.201 1.5 12 1.5S22.5 6.201 22.5 12c0 3.136-1.375 5.952-3.555 7.876a10.497 10.497 0 0 0-13.89 0A10.475 10.475 0 0 1 1.5 12zm3.133 9.473A11.948 11.948 0 0 0 12 24c6.627 0 12-5.373 12-12S18.627 0 12 0 0 5.373 0 12a11.98 11.98 0 0 0 4.633 9.473zm1.644-.668a8.998 8.998 0 0 1 11.446 0A10.451 10.451 0 0 1 12 22.5a10.45 10.45 0 0 1-5.723-1.695zM12 5.25a4.5 4.5 0 1 0 0 9 4.5 4.5 0 0 0 0-9zm-6 4.5a6 6 0 1 1 12 0 6 6 0 0 1-12 0z"></path></g><defs><clipPath id="act_pro_a"><path d="M0 0h24v24H0z"></path></clipPath></defs></svg>